<svg width="120" height="120" viewBox="0 0 120 120" fill="none" xmlns="http://www.w3.org/2000/svg">
<path d="M60 77.8125C61.2936 77.8125 62.3438 76.7624 62.3438 75.4688C62.3438 74.1751 61.2936 73.125 60 73.125C58.7064 73.125 57.6562 74.1751 57.6562 75.4688C57.6562 76.7624 58.7064 77.8125 60 77.8125Z" fill="#00588A"/>
<path fill-rule="evenodd" clip-rule="evenodd" d="M90.153 65.473C89.7401 64.7589 88.9811 64.3149 88.1562 64.303H88.1242C87.3112 64.303 86.5559 64.725 86.1283 65.4181L77.1168 80.062L62.3439 56.0559V28.125H97.5001C98.401 28.125 99.2222 27.6086 99.6122 26.7966C100.003 25.9845 99.8933 25.0204 99.3303 24.3173L91.1262 14.0625L99.3303 3.80768C99.8933 3.10455 100.003 2.1405 99.6122 1.32843C99.2222 0.516357 98.401 0 97.5001 0H60.0001C58.7056 0 57.6564 1.04919 57.6564 2.34375V56.0559L42.8834 80.0629L33.871 65.4181C33.4388 64.7159 32.6716 64.292 31.844 64.303C31.0182 64.314 30.2601 64.7589 29.8463 65.473L0.315057 116.482C-0.104255 117.208 -0.10517 118.101 0.313226 118.827C0.731622 119.553 1.50616 120 2.34387 120H117.656C118.494 120 119.269 119.553 119.687 118.827C120.105 118.101 120.104 117.207 119.684 116.482L90.153 65.473ZM44.9086 85.7144L44.9127 85.708L44.9168 85.7016L60.0001 61.1911L93.3052 115.312H26.6941L44.9086 85.7144ZM86.295 15.5264C85.6102 14.6704 85.6102 13.4546 86.295 12.5986L92.6231 4.6875H62.3439V23.4375H92.6231L86.295 15.5264ZM31.9365 71.218L40.1313 84.5343L21.19 115.312H6.40881L31.9365 71.218ZM79.8689 84.5334L98.8093 115.312H113.591L88.0638 71.218L79.8689 84.5334Z" fill="#00588A"/>
<path d="M78.7271 109.51C79.4055 110.613 80.8493 110.956 81.9516 110.277C83.0539 109.599 83.3981 108.156 82.7188 107.054L67.2876 81.9773C66.6101 80.875 65.1663 80.5308 64.0631 81.2092C62.9608 81.8885 62.6175 83.3314 63.2959 84.4337L78.7271 109.51Z" fill="#00588A"/>
</svg>
