<svg width="48" height="48" viewBox="0 0 48 48" fill="none" xmlns="http://www.w3.org/2000/svg">
<path fill-rule="evenodd" clip-rule="evenodd" d="M29.0625 48H11.25C5.04675 48 0 42.9533 0 36.75V11.25C0 5.04675 5.04675 0 11.25 0H36.75C42.9533 0 48 5.04675 48 11.25V29.2031C48 30.2387 47.1606 31.0781 46.125 31.0781C45.0894 31.0781 44.25 30.2387 44.25 29.2031V11.25C44.25 7.1145 40.8855 3.75 36.75 3.75H11.25C7.1145 3.75 3.75 7.1145 3.75 11.25V36.75C3.75 40.8855 7.1145 44.25 11.25 44.25H29.0625C30.0981 44.25 30.9375 45.0894 30.9375 46.125C30.9375 47.1606 30.0981 48 29.0625 48ZM38.625 11.8125C38.625 10.7769 37.7856 9.9375 36.75 9.9375H19.5938C18.5582 9.9375 17.7188 10.7769 17.7188 11.8125C17.7188 12.8481 18.5582 13.6875 19.5938 13.6875H36.75C37.7856 13.6875 38.625 12.8481 38.625 11.8125ZM36.75 17.4375C37.7856 17.4375 38.625 18.2769 38.625 19.3125C38.625 20.3481 37.7856 21.1875 36.75 21.1875H11.25C10.2144 21.1875 9.375 20.3481 9.375 19.3125C9.375 18.2769 10.2144 17.4375 11.25 17.4375H36.75ZM19.875 26.8125C19.875 25.7769 19.0356 24.9375 18 24.9375H11.25C10.2144 24.9375 9.375 25.7769 9.375 26.8125C9.375 27.8481 10.2144 28.6875 11.25 28.6875H18C19.0356 28.6875 19.875 27.8481 19.875 26.8125ZM11.7188 13.9688C10.4243 13.9688 9.375 12.9194 9.375 11.625C9.375 10.3306 10.4243 9.28125 11.7188 9.28125C13.0132 9.28125 14.0625 10.3306 14.0625 11.625C14.0625 12.9194 13.0132 13.9688 11.7188 13.9688ZM45.9955 45.9954C48.6638 43.3271 48.6638 38.9854 45.9955 36.317L39.4228 29.7443C37.5232 27.8446 35.1265 26.5623 32.4922 26.0357L27.18 24.9739C26.5656 24.8508 25.9299 25.0434 25.4867 25.4867C25.0434 25.93 24.8511 26.5654 24.9739 27.1801L26.0357 32.4923C26.5623 35.1267 27.8447 37.5232 29.7442 39.4229L36.317 45.9955C37.6096 47.2881 39.3282 48 41.1562 48C42.9843 48 44.7029 47.2881 45.9955 45.9954ZM36.7711 32.3959C35.3968 31.0215 33.6631 30.0938 31.7572 29.7129L29.2024 29.2024L29.713 31.7573C30.0939 33.6631 31.0217 35.3968 32.396 36.7712L38.9687 43.3438C39.5529 43.9282 40.3299 44.25 41.1562 44.25C41.9826 44.25 42.7596 43.9282 43.3438 43.3438C44.5501 42.1375 44.5501 40.1748 43.3438 38.9685L36.7711 32.3959Z" fill="#00588A"/>
</svg>
