<svg width="44" height="48" viewBox="0 0 44 48" fill="none" xmlns="http://www.w3.org/2000/svg">
<path fill-rule="evenodd" clip-rule="evenodd" d="M32.4332 5.43588L33.5828 9.28119L36.2829 8.47393L33.7497 0L25.2757 2.53329L26.0831 5.23352L29.9662 4.07266L27.487 8.71189C23.312 16.5241 15.2158 21.377 6.35803 21.377V24.1954C16.2578 24.1954 25.3064 18.7714 29.9726 10.0403L32.4332 5.43588ZM39.9373 18.2338V45.1817V45.1818H43.294V48.0001H0.00892467V45.1818H3.36554V32.8114H13.6772V45.1817H16.4955V27.2499H26.8073V45.1817H29.6256V18.2338H39.9373ZM6.18386 45.1817H10.8589H10.859V35.6297H6.18386V45.1817ZM23.989 45.1817H19.3139V30.0683H23.989V45.1817ZM32.4438 45.1817H37.1189V21.0521H32.4438V45.1817ZM2.5 25C3.88071 25 5 23.8807 5 22.5C5 21.1193 3.88071 20 2.5 20C1.11929 20 0 21.1193 0 22.5C0 23.8807 1.11929 25 2.5 25Z" fill="#00588A"/>
</svg>
