<svg width="68" height="51" viewBox="0 0 68 51" fill="none" xmlns="http://www.w3.org/2000/svg">
<path fill-rule="evenodd" clip-rule="evenodd" d="M45.198 1C43.0992 1.00236 41.3984 2.70574 41.396 4.80769V5.44155C37.3369 9.74437 31.8449 12.6907 27.8964 14.4213C23.0471 16.5466 18.5848 17.6587 16.6832 17.6587H5.27723C2.91607 17.6613 1.00262 19.5776 1 21.9423V29.5577C1.00262 31.9224 2.91607 33.8387 5.27723 33.8413H7.65347V43.8365C7.65347 44.2152 7.80368 44.5784 8.07106 44.8462C8.33843 45.114 8.70108 45.2644 9.07921 45.2644H13.8317C14.4859 45.2644 15.0562 44.8186 15.2149 44.1829L17.7754 33.9259C20.0131 34.221 23.8176 35.2916 27.8964 37.0792C31.8449 38.8098 37.3369 41.7561 41.396 46.0589V46.6923C41.396 48.7952 43.0982 50.5 45.198 50.5C47.2978 50.5 49 48.7952 49 46.6923V4.80769C48.9976 2.70574 47.2968 1.00236 45.198 1ZM15.2574 30.9856H10.505V20.5144H15.2574V30.9856ZM3.85149 21.9423V29.5577C3.85234 30.3459 4.49016 30.9847 5.27723 30.9856H7.65347V20.5144H5.27723C4.49016 20.5153 3.85234 21.1541 3.85149 21.9423ZM12.7185 42.4087H10.505V33.8413H14.8571L12.7185 42.4087ZM18.1089 20.404V31.096C23.1203 31.7644 33.9032 35.482 41.396 42.0977V9.40227C33.9032 16.018 23.1203 19.7356 18.1089 20.404ZM46.1485 46.6923C46.1485 47.218 45.723 47.6442 45.198 47.6442C44.6731 47.6442 44.2475 47.218 44.2475 46.6923V4.80769C44.2475 4.28196 44.6731 3.85577 45.198 3.85577C45.723 3.85577 46.1485 4.28196 46.1485 4.80769V46.6923ZM56.5 28C57.8807 28 59 26.8807 59 25.5C59 24.1193 57.8807 23 56.5 23C55.1193 23 54 24.1193 54 25.5C54 26.8807 55.1193 28 56.5 28ZM67 10.5C67 11.8807 65.8807 13 64.5 13C63.1193 13 62 11.8807 62 10.5C62 9.11929 63.1193 8 64.5 8C65.8807 8 67 9.11929 67 10.5ZM64.5 42C65.8807 42 67 40.8807 67 39.5C67 38.1193 65.8807 37 64.5 37C63.1193 37 62 38.1193 62 39.5C62 40.8807 63.1193 42 64.5 42Z" fill="#00588A"/>
<path d="M41.396 4.80769L41.1148 4.80738V4.80769H41.396ZM45.198 1L45.1983 0.718749L45.1977 0.71875L45.198 1ZM41.396 5.44155L41.6006 5.63455L41.6773 5.55328V5.44155H41.396ZM27.8964 14.4213L28.0093 14.6789L28.0093 14.6789L27.8964 14.4213ZM5.27723 17.6587V17.3774H5.27692L5.27723 17.6587ZM1 21.9423L0.71875 21.942V21.9423H1ZM1 29.5577H0.71875L0.71875 29.558L1 29.5577ZM5.27723 33.8413L5.27692 34.1226H5.27723V33.8413ZM7.65347 33.8413H7.93472V33.5601H7.65347V33.8413ZM13.8317 45.2644L13.8317 44.9832H13.8317V45.2644ZM15.2149 44.1829L15.4878 44.251L15.4878 44.251L15.2149 44.1829ZM17.7754 33.9259L17.8122 33.6471L17.5633 33.6143L17.5025 33.8578L17.7754 33.9259ZM27.8964 37.0792L28.0093 36.8216L28.0093 36.8216L27.8964 37.0792ZM41.396 46.0589H41.6773V45.9472L41.6006 45.8659L41.396 46.0589ZM49 4.80769H49.2812V4.80738L49 4.80769ZM10.505 30.9856H10.2237V31.2668H10.505V30.9856ZM15.2574 30.9856V31.2668H15.5387V30.9856H15.2574ZM10.505 20.5144V20.2332H10.2237V20.5144H10.505ZM15.2574 20.5144H15.5387V20.2332H15.2574V20.5144ZM3.85149 29.5577H3.57024L3.57024 29.558L3.85149 29.5577ZM3.85149 21.9423L3.57024 21.942V21.9423H3.85149ZM5.27723 30.9856L5.27692 31.2668H5.27723V30.9856ZM7.65347 30.9856V31.2668H7.93472V30.9856H7.65347ZM7.65347 20.5144H7.93472V20.2332H7.65347V20.5144ZM5.27723 20.5144V20.2332H5.27692L5.27723 20.5144ZM10.505 42.4087H10.2237V42.6899H10.505V42.4087ZM12.7185 42.4087V42.6899H12.9382L12.9914 42.4768L12.7185 42.4087ZM10.505 33.8413V33.5601H10.2237V33.8413H10.505ZM14.8571 33.8413L15.13 33.9095L15.2172 33.5601H14.8571V33.8413ZM18.1089 31.096H17.8277V31.3422L18.0717 31.3748L18.1089 31.096ZM18.1089 20.404L18.0717 20.1252L17.8277 20.1578V20.404H18.1089ZM41.396 42.0977L41.2099 42.3086L41.6773 42.7212V42.0977H41.396ZM41.396 9.40227H41.6773V8.77875L41.2099 9.19144L41.396 9.40227ZM41.6773 4.80801C41.6795 2.86074 43.255 1.28344 45.1983 1.28125L45.1977 0.71875C42.9434 0.721286 41.1173 2.55074 41.1148 4.80738L41.6773 4.80801ZM41.6773 5.44155V4.80769H41.1148V5.44155H41.6773ZM28.0093 14.6789C31.9713 12.9423 37.5035 9.97767 41.6006 5.63455L41.1915 5.24856C37.1704 9.51106 31.7184 12.439 27.7835 14.1637L28.0093 14.6789ZM16.6832 17.9399C17.6731 17.9399 19.2939 17.6534 21.2596 17.108C23.2322 16.5606 25.5727 15.7468 28.0093 14.6789L27.7835 14.1637C25.3708 15.2211 23.0555 16.0259 21.1092 16.5659C19.156 17.1079 17.5948 17.3774 16.6832 17.3774V17.9399ZM5.27723 17.9399H16.6832V17.3774H5.27723V17.9399ZM1.28125 21.9426C1.2837 19.7326 3.07186 17.9424 5.27754 17.9399L5.27692 17.3774C2.76027 17.3802 0.721541 19.4226 0.71875 21.942L1.28125 21.9426ZM1.28125 29.5577V21.9423H0.71875V29.5577H1.28125ZM5.27754 33.5601C3.07186 33.5576 1.2837 31.7674 1.28125 29.5574L0.71875 29.558C0.721541 32.0774 2.76027 34.1198 5.27692 34.1226L5.27754 33.5601ZM7.65347 33.5601H5.27723V34.1226H7.65347V33.5601ZM7.93472 43.8365V33.8413H7.37222V43.8365H7.93472ZM8.27008 44.6475C8.0554 44.4325 7.93472 44.1408 7.93472 43.8365H7.37222C7.37222 44.2897 7.55196 44.7244 7.87203 45.0449L8.27008 44.6475ZM9.07921 44.9832C8.77581 44.9832 8.48475 44.8625 8.27008 44.6475L7.87203 45.0449C8.19212 45.3655 8.62635 45.5457 9.07921 45.5457V44.9832ZM13.8317 44.9832H9.07921V45.5457H13.8317V44.9832ZM14.942 44.1148C14.8145 44.6254 14.3566 44.9832 13.8317 44.9832L13.8317 45.5457C14.6152 45.5457 15.2979 45.0117 15.4878 44.251L14.942 44.1148ZM17.5025 33.8578L14.942 44.1148L15.4878 44.251L18.0483 33.9941L17.5025 33.8578ZM28.0093 36.8216C23.9146 35.0271 20.0839 33.9467 17.8122 33.6471L17.7386 34.2048C19.9423 34.4954 23.7206 35.5561 27.7835 37.3368L28.0093 36.8216ZM41.6006 45.8659C37.5035 41.5228 31.9713 38.5581 28.0093 36.8216L27.7835 37.3368C31.7184 39.0614 37.1704 41.9894 41.1915 46.2519L41.6006 45.8659ZM41.6773 46.6923V46.0589H41.1148V46.6923H41.6773ZM45.198 50.2188C43.254 50.2188 41.6773 48.6403 41.6773 46.6923H41.1148C41.1148 48.9502 42.9425 50.7812 45.198 50.7812V50.2188ZM48.7188 46.6923C48.7188 48.6403 47.1421 50.2188 45.198 50.2188V50.7812C47.4535 50.7812 49.2812 48.9502 49.2812 46.6923H48.7188ZM48.7188 4.80769V46.6923H49.2812V4.80769H48.7188ZM45.1977 1.28125C47.141 1.28344 48.7166 2.86074 48.7188 4.80801L49.2812 4.80738C49.2787 2.55074 47.4526 0.721286 45.1983 0.71875L45.1977 1.28125ZM10.505 31.2668H15.2574V30.7043H10.505V31.2668ZM10.2237 20.5144V30.9856H10.7862V20.5144H10.2237ZM15.2574 20.2332H10.505V20.7957H15.2574V20.2332ZM15.5387 30.9856V20.5144H14.9762V30.9856H15.5387ZM4.13274 29.5577V21.9423H3.57024V29.5577H4.13274ZM5.27753 30.7043C4.64596 30.7036 4.13342 30.1909 4.13274 29.5574L3.57024 29.558C3.57125 30.5009 4.33437 31.2658 5.27692 31.2668L5.27753 30.7043ZM7.65347 30.7043H5.27723V31.2668H7.65347V30.7043ZM7.37222 20.5144V30.9856H7.93472V20.5144H7.37222ZM5.27723 20.7957H7.65347V20.2332H5.27723V20.7957ZM4.13274 21.9426C4.13342 21.3091 4.64596 20.7964 5.27753 20.7957L5.27692 20.2332C4.33437 20.2342 3.57125 20.9991 3.57024 21.942L4.13274 21.9426ZM10.505 42.6899H12.7185V42.1274H10.505V42.6899ZM10.2237 33.8413V42.4087H10.7862V33.8413H10.2237ZM14.8571 33.5601H10.505V34.1226H14.8571V33.5601ZM12.9914 42.4768L15.13 33.9095L14.5843 33.7732L12.4457 42.3405L12.9914 42.4768ZM18.3902 31.096V20.404H17.8277V31.096H18.3902ZM41.5822 41.8869C34.0418 35.2292 23.2047 31.4919 18.1461 30.8172L18.0717 31.3748C23.0359 32.0369 33.7646 35.7348 41.2099 42.3086L41.5822 41.8869ZM41.1148 9.40227V42.0977H41.6773V9.40227H41.1148ZM18.1461 20.6828C23.2047 20.0081 34.0418 16.2708 41.5822 9.6131L41.2099 9.19144C33.7646 15.7652 23.0359 19.4631 18.0717 20.1252L18.1461 20.6828ZM45.198 47.9255C45.8787 47.9255 46.4298 47.373 46.4298 46.6923H45.8673C45.8673 47.0631 45.5672 47.363 45.198 47.363V47.9255ZM43.9663 46.6923C43.9663 47.373 44.5173 47.9255 45.198 47.9255V47.363C44.8288 47.363 44.5288 47.0631 44.5288 46.6923H43.9663ZM43.9663 4.80769V46.6923H44.5288V4.80769H43.9663ZM45.198 3.57452C44.5173 3.57452 43.9663 4.12703 43.9663 4.80769H44.5288C44.5288 4.43689 44.8288 4.13702 45.198 4.13702V3.57452ZM46.4298 4.80769C46.4298 4.12703 45.8787 3.57452 45.198 3.57452V4.13702C45.5672 4.13702 45.8673 4.43689 45.8673 4.80769H46.4298ZM46.4298 46.6923V4.80769H45.8673V46.6923H46.4298ZM58.7188 25.5C58.7188 26.7254 57.7254 27.7188 56.5 27.7188V28.2812C58.036 28.2812 59.2812 27.036 59.2812 25.5H58.7188ZM56.5 23.2812C57.7254 23.2812 58.7188 24.2746 58.7188 25.5H59.2812C59.2812 23.964 58.036 22.7188 56.5 22.7188V23.2812ZM54.2812 25.5C54.2812 24.2746 55.2746 23.2812 56.5 23.2812V22.7188C54.964 22.7188 53.7188 23.964 53.7188 25.5H54.2812ZM56.5 27.7188C55.2746 27.7188 54.2812 26.7254 54.2812 25.5H53.7188C53.7188 27.036 54.964 28.2812 56.5 28.2812V27.7188ZM64.5 13.2812C66.036 13.2812 67.2812 12.036 67.2812 10.5H66.7188C66.7188 11.7254 65.7254 12.7188 64.5 12.7188V13.2812ZM61.7188 10.5C61.7188 12.036 62.964 13.2812 64.5 13.2812V12.7188C63.2746 12.7188 62.2812 11.7254 62.2812 10.5H61.7188ZM64.5 7.71875C62.964 7.71875 61.7188 8.96396 61.7188 10.5H62.2812C62.2812 9.27462 63.2746 8.28125 64.5 8.28125V7.71875ZM67.2812 10.5C67.2812 8.96396 66.036 7.71875 64.5 7.71875V8.28125C65.7254 8.28125 66.7188 9.27462 66.7188 10.5H67.2812ZM66.7188 39.5C66.7188 40.7254 65.7254 41.7188 64.5 41.7188V42.2812C66.036 42.2812 67.2812 41.036 67.2812 39.5H66.7188ZM64.5 37.2812C65.7254 37.2812 66.7188 38.2746 66.7188 39.5H67.2812C67.2812 37.964 66.036 36.7188 64.5 36.7188V37.2812ZM62.2812 39.5C62.2812 38.2746 63.2746 37.2812 64.5 37.2812V36.7188C62.964 36.7188 61.7188 37.964 61.7188 39.5H62.2812ZM64.5 41.7188C63.2746 41.7188 62.2812 40.7254 62.2812 39.5H61.7188C61.7188 41.036 62.964 42.2812 64.5 42.2812V41.7188Z" fill="#00588A"/>
</svg>
