<svg width="108" height="120" viewBox="0 0 108 120" fill="none" xmlns="http://www.w3.org/2000/svg">
<path d="M39.8438 50.625C41.1374 50.625 42.1875 49.5749 42.1875 48.2812C42.1875 46.9812 41.1264 45.9375 39.8438 45.9375C38.5501 45.9375 37.5 46.9876 37.5 48.2812C37.5 49.5758 38.5501 50.625 39.8438 50.625Z" fill="#00588A"/>
<path d="M53.9062 20.1562C55.2008 20.1562 56.25 19.1071 56.25 17.8125V2.34375C56.25 1.04919 55.2008 0 53.9062 0C52.6117 0 51.5625 1.04919 51.5625 2.34375V17.8125C51.5625 19.1071 52.6117 20.1562 53.9062 20.1562Z" fill="#00588A"/>
<path d="M51.5625 102.188V117.656C51.5625 118.951 52.6117 120 53.9062 120C55.2008 120 56.25 118.951 56.25 117.656V102.188C56.25 100.893 55.2008 99.8438 53.9062 99.8438C52.6117 99.8438 51.5625 100.893 51.5625 102.188Z" fill="#00588A"/>
<path d="M17.7302 31.8252C18.6458 32.7407 20.1289 32.7407 21.0453 31.8252C21.96 30.9106 21.96 29.4265 21.0453 28.511L11.1 18.5665C10.1854 17.651 8.70129 17.651 7.78577 18.5665C6.87024 19.4821 6.87024 20.9661 7.78577 21.8807L17.7302 31.8252Z" fill="#00588A"/>
<path d="M86.7682 90.517C85.8527 91.4325 85.8527 92.9166 86.7682 93.8321L96.7126 103.777C97.6273 104.691 99.1113 104.692 100.027 103.777C100.942 102.861 100.942 101.377 100.027 100.461L90.0824 90.517C89.1669 89.6024 87.6837 89.6024 86.7682 90.517Z" fill="#00588A"/>
<path d="M90.0824 31.8252L100.027 21.8807C100.942 20.9661 100.942 19.4821 100.027 18.5665C99.1113 17.651 97.6282 17.651 96.7126 18.5665L86.7682 28.511C85.8527 29.4265 85.8527 30.9106 86.7682 31.8252C87.6837 32.7407 89.1669 32.7407 90.0824 31.8252Z" fill="#00588A"/>
<path d="M17.7302 90.5187L7.78577 100.463C6.87024 101.378 6.87024 102.862 7.78577 103.777C8.70129 104.693 10.1844 104.693 11.1 103.777L21.0453 93.8329C21.96 92.9174 21.96 91.4333 21.0453 90.5187C20.1298 89.6031 18.6458 89.6031 17.7302 90.5187Z" fill="#00588A"/>
<path fill-rule="evenodd" clip-rule="evenodd" d="M53.906 92.8125C40.6428 92.8125 27.1754 87.3532 14.9613 77.0242C5.81062 69.2853 0.615921 61.6306 0.398941 61.3083C-0.13298 60.5173 -0.13298 59.4827 0.398941 58.6917C0.615921 58.3694 5.81062 50.7147 14.9613 42.9758C27.1754 32.6468 40.6428 27.1875 53.906 27.1875C67.1702 27.1875 80.6367 32.6468 92.8507 42.9758C102.002 50.7147 107.197 58.3704 107.413 58.6917C107.945 59.4827 107.945 60.5173 107.413 61.3083C107.197 61.6306 102.002 69.2853 92.8507 77.0242C80.6367 87.3532 67.1702 92.8125 53.906 92.8125ZM53.906 31.875C38.5673 31.875 25.9074 39.8584 17.9881 46.5555C11.4979 52.0441 7.06673 57.5537 5.23476 59.9991C7.08046 62.4591 11.562 68.0283 18.0878 73.5287C25.987 80.1874 38.614 88.125 53.906 88.125C69.2448 88.125 81.9047 80.1416 89.824 73.4445C96.3142 67.9559 100.745 62.4463 102.578 60.0018C100.731 57.54 96.2501 51.9717 89.7251 46.4713C81.825 39.8126 69.1981 31.875 53.906 31.875Z" fill="#00588A"/>
<path d="M53.9062 81.0938C65.6094 81.0938 75 71.5952 75 60C75 48.3691 65.5371 38.9062 53.9062 38.9062C51.4435 38.9062 48.7701 39.3576 46.3568 40.2979C45.1501 40.7666 44.5523 42.1252 45.0211 43.3319C45.4623 44.4672 46.6946 45.1886 48.2822 44.5834C50.0674 43.9151 52.067 43.5938 53.9062 43.5938C62.9526 43.5938 70.3125 50.9537 70.3125 60C70.3125 69.0198 62.9993 76.4062 53.9062 76.4062C44.8599 76.4062 37.5 69.0463 37.5 60C37.5 58.9059 37.597 58.0646 37.771 57.0081C38.0118 55.7364 37.1759 54.5178 35.9042 54.2752C34.6362 54.0353 33.4058 54.8749 33.1631 56.1456C32.9233 57.4182 32.8125 58.7622 32.8125 60C32.8125 71.6309 42.2754 81.0938 53.9062 81.0938Z" fill="#00588A"/>
<path fill-rule="evenodd" clip-rule="evenodd" d="M53.9062 50.625C59.0753 50.625 63.2812 54.8309 63.2812 60C63.2812 65.1691 59.0753 69.375 53.9062 69.375C48.7372 69.375 44.5312 65.1691 44.5312 60C44.5312 54.8309 48.7372 50.625 53.9062 50.625ZM53.9062 55.3125C51.3217 55.3125 49.2188 57.4155 49.2188 60C49.2188 62.5845 51.3217 64.6875 53.9062 64.6875C56.4908 64.6875 58.5938 62.5845 58.5938 60C58.5938 57.4155 56.4908 55.3125 53.9062 55.3125Z" fill="#00588A"/>
</svg>
