<svg width="83" height="181" viewBox="0 0 83 181" fill="none" xmlns="http://www.w3.org/2000/svg">
<path fill-rule="evenodd" clip-rule="evenodd" d="M40 84.5117V83.5117C40 82.6833 40.6716 82.0117 41.5 82.0117C42.3284 82.0117 43 82.6833 43 83.5117V84.5117C43 85.3401 42.3284 86.0117 41.5 86.0117C40.6716 86.0117 40 85.3401 40 84.5117ZM40 90.5117V89.5117C40 88.6833 40.6716 88.0117 41.5 88.0117C42.3284 88.0117 43 88.6833 43 89.5117V90.5117C43 91.3401 42.3284 92.0117 41.5 92.0117C40.6716 92.0117 40 91.3401 40 90.5117ZM40 95.5117V96.5117C40 97.3401 40.6716 98.0117 41.5 98.0117C42.3284 98.0117 43 97.3401 43 96.5117V95.5117C43 94.6833 42.3284 94.0117 41.5 94.0117C40.6716 94.0117 40 94.6833 40 95.5117ZM40 102.512V101.512C40 100.683 40.6716 100.012 41.5 100.012C42.3284 100.012 43 100.683 43 101.512V102.512C43 103.34 42.3284 104.012 41.5 104.012C40.6716 104.012 40 103.34 40 102.512ZM40 107.512V108.512C40 109.34 40.6716 110.012 41.5 110.012C42.3284 110.012 43 109.34 43 108.512V107.512C43 106.683 42.3284 106.012 41.5 106.012C40.6716 106.012 40 106.683 40 107.512ZM40 114.512V113.512C40 112.683 40.6716 112.012 41.5 112.012C42.3284 112.012 43 112.683 43 113.512V114.512C43 115.34 42.3284 116.012 41.5 116.012C40.6716 116.012 40 115.34 40 114.512ZM40 119.512V120.512C40 121.34 40.6716 122.012 41.5 122.012C42.3284 122.012 43 121.34 43 120.512V119.512C43 118.683 42.3284 118.012 41.5 118.012C40.6716 118.012 40 118.683 40 119.512ZM40 127.512V126.512C40 125.683 40.6716 125.012 41.5 125.012C42.3284 125.012 43 125.683 43 126.512V127.512C43 128.34 42.3284 129.012 41.5 129.012C40.6716 129.012 40 128.34 40 127.512ZM40 132.512V133.512C40 134.34 40.6716 135.012 41.5 135.012C42.3284 135.012 43 134.34 43 133.512V132.512C43 131.683 42.3284 131.012 41.5 131.012C40.6716 131.012 40 131.683 40 132.512ZM40 138.512V137.512C40 136.683 40.6716 136.012 41.5 136.012C42.3284 136.012 43 136.683 43 137.512V138.512C43 139.34 42.3284 140.012 41.5 140.012C40.6716 140.012 40 139.34 40 138.512ZM40 143.512V144.512C40 145.34 40.6716 146.012 41.5 146.012C42.3284 146.012 43 145.34 43 144.512V143.512C43 142.683 42.3284 142.012 41.5 142.012C40.6716 142.012 40 142.683 40 143.512ZM40 150.512V149.512C40 148.683 40.6716 148.012 41.5 148.012C42.3284 148.012 43 148.683 43 149.512V150.512C43 151.34 42.3284 152.012 41.5 152.012C40.6716 152.012 40 151.34 40 150.512ZM40 156.512V157.512C40 158.34 40.6716 159.012 41.5 159.012C42.3284 159.012 43 158.34 43 157.512V156.512C43 155.683 42.3284 155.012 41.5 155.012C40.6716 155.012 40 155.683 40 156.512ZM40 163.512V162.512C40 161.683 40.6716 161.012 41.5 161.012C42.3284 161.012 43 161.683 43 162.512V163.512C43 164.34 42.3284 165.012 41.5 165.012C40.6716 165.012 40 164.34 40 163.512ZM40 168.512V169.512C40 170.34 40.6716 171.012 41.5 171.012C42.3284 171.012 43 170.34 43 169.512V168.512C43 167.683 42.3284 167.012 41.5 167.012C40.6716 167.012 40 167.683 40 168.512ZM40 174.512V173.512C40 172.683 40.6716 172.012 41.5 172.012C42.3284 172.012 43 172.683 43 173.512V174.512C43 175.34 42.3284 176.012 41.5 176.012C40.6716 176.012 40 175.34 40 174.512ZM40 179.512V180.512C40 181.34 40.6716 182.012 41.5 182.012C42.3284 182.012 43 181.34 43 180.512V179.512C43 178.683 42.3284 178.012 41.5 178.012C40.6716 178.012 40 178.683 40 179.512ZM40 187.512V186.512C40 185.683 40.6716 185.012 41.5 185.012C42.3284 185.012 43 185.683 43 186.512V187.512C43 188.34 42.3284 189.012 41.5 189.012C40.6716 189.012 40 188.34 40 187.512ZM40 192.512V193.512C40 194.34 40.6716 195.012 41.5 195.012C42.3284 195.012 43 194.34 43 193.512V192.512C43 191.683 42.3284 191.012 41.5 191.012C40.6716 191.012 40 191.683 40 192.512ZM40 199.512V198.512C40 197.683 40.6716 197.012 41.5 197.012C42.3284 197.012 43 197.683 43 198.512V199.512C43 200.34 42.3284 201.012 41.5 201.012C40.6716 201.012 40 200.34 40 199.512ZM40 204.512V205.512C40 206.34 40.6716 207.012 41.5 207.012C42.3284 207.012 43 206.34 43 205.512V204.512C43 203.683 42.3284 203.012 41.5 203.012C40.6716 203.012 40 203.683 40 204.512ZM40 211.512V210.512C40 209.683 40.6716 209.012 41.5 209.012C42.3284 209.012 43 209.683 43 210.512V211.512C43 212.34 42.3284 213.012 41.5 213.012C40.6716 213.012 40 212.34 40 211.512ZM40 216.512V217.512C40 218.34 40.6716 219.012 41.5 219.012C42.3284 219.012 43 218.34 43 217.512V216.512C43 215.683 42.3284 215.012 41.5 215.012C40.6716 215.012 40 215.683 40 216.512ZM40 223.512V222.512C40 221.683 40.6716 221.012 41.5 221.012C42.3284 221.012 43 221.683 43 222.512V223.512C43 224.34 42.3284 225.012 41.5 225.012C40.6716 225.012 40 224.34 40 223.512Z" fill="url(#paint0_linear_1266_5057)"/>
<path fill-rule="evenodd" clip-rule="evenodd" d="M40.5308 1.06743C40.5839 1.0267 40.6362 0.988626 40.6964 0.95675C40.7619 0.921333 40.8283 0.895656 40.8983 0.871751C40.9145 0.866095 40.9296 0.858668 40.9446 0.851257L40.9447 0.851233C40.965 0.841252 40.9852 0.831296 41.0081 0.82571C41.0226 0.822208 41.0374 0.822379 41.0523 0.822555C41.0637 0.822688 41.0753 0.822823 41.0869 0.821281C41.1568 0.80977 41.2268 0.808885 41.2994 0.808885C41.372 0.808884 41.4419 0.811542 41.5127 0.823939C41.5245 0.825968 41.5361 0.825952 41.5475 0.825937L41.5475 0.825935C41.561 0.825913 41.5742 0.825895 41.5871 0.829251C41.6097 0.834778 41.6295 0.844868 41.6493 0.854988C41.6644 0.862702 41.6796 0.870434 41.696 0.876178C41.7686 0.90097 41.8368 0.928417 41.9032 0.964721C41.9581 0.996595 42.0068 1.03289 42.0564 1.07185C42.1148 1.1179 42.1688 1.16482 42.2184 1.21972C42.2645 1.27108 42.3017 1.32774 42.338 1.38707C42.3477 1.40282 42.3594 1.41699 42.3711 1.43118C42.3869 1.45048 42.4029 1.46984 42.4141 1.49332L68.0913 53.7331C68.3251 54.2042 68.2365 54.7726 67.8708 55.1525C67.5052 55.5323 66.9411 55.643 66.4586 55.4278L41.2631 44.2202L15.1901 54.5628C14.7243 54.7469 14.1949 54.6354 13.8434 54.2839C13.8283 54.2688 13.8141 54.2546 13.8 54.2387C13.4493 53.8509 13.3767 53.2878 13.6158 52.8238L40.1784 1.46941C40.1894 1.44791 40.2048 1.43013 40.2203 1.41222C40.2309 1.39989 40.2416 1.3875 40.251 1.37378C40.29 1.31357 40.3298 1.25779 40.3785 1.20556C40.4263 1.1542 40.4759 1.10993 40.5308 1.06743ZM64.3212 51.7356L42.5443 7.43006L42.5443 42.0482L64.3212 51.7356ZM40.0394 42.0119L17.3797 51.0007L40.0403 7.191L40.0394 42.0119Z" fill="white"/>
<path d="M41.2913 53.9176C41.9837 53.9176 42.5433 54.4771 42.5433 55.1695V79.9613C42.5433 80.6537 41.9837 81.2133 41.2913 81.2133C40.946 81.2133 40.6326 81.0734 40.4059 80.8467C40.1792 80.6201 40.0393 80.3066 40.0393 79.9613V55.1695C40.0393 54.4771 40.5989 53.9176 41.2913 53.9176Z" fill="white"/>
<path d="M32.8038 57.8255V70.2214C32.8038 70.9138 32.2442 71.4734 31.5518 71.4734C31.2065 71.4734 30.893 71.3335 30.6663 71.1068C30.4397 70.8801 30.2998 70.5667 30.2998 70.2214V57.8255C30.2998 57.1331 30.8594 56.5735 31.5518 56.5735C32.2442 56.5735 32.8038 57.1331 32.8038 57.8255Z" fill="white"/>
<path d="M50.1454 71.1068C49.9187 70.8801 49.7788 70.5667 49.7788 70.2214V57.8255C49.7788 57.1331 50.3384 56.5735 51.0308 56.5735C51.7232 56.5735 52.2828 57.1331 52.2828 57.8255V70.2214C52.2828 70.9138 51.7232 71.4734 51.0308 71.4734C50.6855 71.4734 50.372 71.3335 50.1454 71.1068Z" fill="white"/>
<defs>
<linearGradient id="paint0_linear_1266_5057" x1="40" y1="82.0117" x2="40" y2="225.012" gradientUnits="userSpaceOnUse">
<stop stop-color="white"/>
<stop offset="1" stop-color="white" stop-opacity="0.01"/>
</linearGradient>
</defs>
</svg>
