<svg width="48" height="48" viewBox="0 0 48 48" fill="none" xmlns="http://www.w3.org/2000/svg">
<circle cx="20.5" cy="27.5" r="2.5" fill="#00588A"/>
<path d="M45.6318 2.36559C44.189 0.922725 42.199 0.0868568 40.0298 0.0072503C37.9701 -0.0723562 35.8607 0.504791 33.9502 1.67899C33.1045 2.19643 32.8358 3.30097 33.3532 4.13684C33.8706 4.98265 34.9751 5.25133 35.8109 4.73388C38.408 3.14176 41.403 3.21141 43.0945 4.90305C44.0896 5.89813 44.5473 7.341 44.3781 8.96298C44.199 10.7243 43.3333 12.4557 41.9403 13.8488C40.5473 15.2419 38.806 16.1077 37.0547 16.2868C35.4328 16.446 33.99 15.9882 32.995 15.0031C32.3483 14.3563 31.4925 14.008 30.5871 14.008C29.6716 14.008 28.8159 14.3663 28.1692 15.0031C27.5224 15.6499 27.1741 16.5057 27.1741 17.4212C27.1741 18.3366 27.5323 19.1924 28.1791 19.8392C28.8259 20.486 29.6816 20.8343 30.5871 20.8343C31.5025 20.8343 32.3582 20.4761 33.005 19.8392C33.1443 19.6999 33.2736 19.5506 33.3831 19.3914C34.3284 19.7298 35.3433 19.9089 36.4179 19.9089C36.7463 19.9089 37.0846 19.889 37.4229 19.8591C37.4527 19.8591 37.4826 19.8492 37.5124 19.8492L37.8209 24.3171C37.8905 25.3321 37.5124 26.3271 36.796 27.0535L20.1095 43.7212C19.1741 44.6565 17.6418 44.6565 16.7065 43.7212L4.27861 31.2926C3.82089 30.8349 3.57214 30.2279 3.57214 29.591C3.57214 28.9442 3.82089 28.3472 4.27861 27.8894L20.9552 11.2119C21.6716 10.4954 22.6667 10.1173 23.6816 10.1869L38.4975 11.1721C39.4826 11.2417 40.3383 10.4954 40.408 9.50032C40.4776 8.51519 39.7313 7.65942 38.7363 7.58977L23.9204 6.60464C21.8806 6.46532 19.8706 7.22159 18.4279 8.6744L1.75124 25.352C0.616915 26.4864 0 27.9889 0 29.591C0 31.1931 0.626866 32.6957 1.75124 33.83L14.1692 46.2487C15.3333 47.4129 16.8756 48 18.408 48C19.9403 48 21.4726 47.4129 22.6468 46.2487L39.3234 29.5711C40.7761 28.1183 41.5323 26.1082 41.393 24.0584L41.0348 18.8242C42.2886 18.2272 43.4527 17.4013 44.4876 16.3763C46.4577 14.4061 47.6915 11.8985 47.9502 9.32121C48.2189 6.60464 47.393 4.13684 45.6318 2.36559Z" fill="#00588A"/>
</svg>
