<svg width="48" height="48" viewBox="0 0 48 48" fill="none" xmlns="http://www.w3.org/2000/svg">
<path fill-rule="evenodd" clip-rule="evenodd" d="M48 21.1087C48 18.5256 46.0905 16.3804 43.609 16.0096L43.6133 5.15625C43.6133 2.31309 41.3002 0 38.457 0H9.58202C6.73887 0 4.42577 2.31309 4.42577 5.15625V26.4403L0.652053 31.5095C-0.0933528 32.5109 -0.208384 33.8259 0.35196 34.9415C0.912303 36.057 2.0358 36.75 3.28408 36.75H24V42.8438C24 45.6869 26.3131 48 29.1563 48H42.8438C45.6869 48 48 45.6869 48 42.8438V21.1087ZM42.8438 45.1875H29.1563C27.8639 45.1875 26.8125 44.1361 26.8125 42.8438V42.375H45.1875V42.8438C45.1875 44.1361 44.1361 45.1875 42.8438 45.1875ZM29.1563 18.765C27.8639 18.765 26.8125 19.8164 26.8125 21.1087V39.5625H45.1875V21.1087C45.1875 19.8164 44.1361 18.765 42.8438 18.765H29.1563ZM7.23827 5.15625C7.23827 3.86391 8.28968 2.8125 9.58202 2.8125H38.457C39.7494 2.8125 40.8008 3.86391 40.8008 5.15625L40.7965 15.9525H29.1563C26.3131 15.9525 24 18.2656 24 21.1087V25.5H7.23827V5.15625ZM2.86521 33.6791C2.91368 33.7756 3.03246 33.9375 3.28408 33.9375H24V28.3125H6.53824L2.90805 33.1888C2.75777 33.3906 2.81665 33.5827 2.86521 33.6791ZM39 23.5C39 24.8807 37.8807 26 36.5 26C35.1193 26 34 24.8807 34 23.5C34 22.1193 35.1193 21 36.5 21C37.8807 21 39 22.1193 39 23.5ZM23.5 10C24.8807 10 26 8.88071 26 7.5C26 6.11929 24.8807 5 23.5 5C22.1193 5 21 6.11929 21 7.5C21 8.88071 22.1193 10 23.5 10Z" fill="#00588A"/>
</svg>
