<svg width="48" height="48" viewBox="0 0 48 48" fill="none" xmlns="http://www.w3.org/2000/svg">
<path d="M46.9948 1.88013L43.0876 36.5154C42.9655 37.5978 41.8144 38.2348 40.8366 37.7608C35.3342 35.0933 31.8327 33.3957 29.5325 32.2807C29.4961 32.3558 25.456 37.3322 25.39 37.4151C24.552 38.4491 22.8928 38.0432 22.624 36.7386L20.8349 28.0647C18.5603 26.9616 14.7299 25.105 7.88931 21.7887C6.69589 21.21 6.70573 19.5005 7.90605 18.9356L45.8782 1.07624C46.4355 0.813547 47.0637 1.26586 46.9948 1.88013Z" fill="#E8F3FF"/>
<path d="M30 33.2435C29.9619 33.321 25.6576 38.4779 25.7132 38.4113C24.8465 39.452 23.1299 39.0436 22.8515 37.7306L21 29L30 33.2435Z" fill="#B9DCFF"/>
<path d="M42.9641 37.5791C42.8381 38.6743 41.6502 39.3189 40.6412 38.8392C27.6552 32.6661 31.7645 34.6194 20 29.0276C19.997 29.0095 46.1604 2.13599 46.1457 2.15118C46.4654 1.82269 47.0431 2.06763 46.9974 2.52014C46.9964 2.52953 42.9652 37.5697 42.9641 37.5791Z" fill="#D1E7FF"/>
<path fill-rule="evenodd" clip-rule="evenodd" d="M3.96033 20.1703L46.8601 0.0766821C47.4253 -0.188081 48.065 0.269237 47.9947 0.889848L43.6121 39.5765C43.5661 39.9831 43.2215 40.2857 42.8172 40.2857C42.8019 40.2857 42.7919 40.2877 42.7826 40.2895L42.7773 40.2905C42.6655 40.3111 42.5385 40.2498 34.3099 36.2722L34.3098 36.2722L34.3091 36.2719C31.2906 34.8128 27.1821 32.8268 21.5845 30.1248L23.4141 38.9586L25.4683 36.4333C25.7469 36.0908 26.2507 36.0386 26.5937 36.317C26.9366 36.5952 26.9888 37.0984 26.7102 37.4408L23.5931 41.2729C23.1701 41.7929 22.3255 41.5912 22.1888 40.9309L19.7692 29.2485L3.95193 21.6131C3.34653 21.321 3.35173 20.4555 3.96033 20.1703ZM21.802 28.4549L42.1492 38.2769L46.244 2.13017L6.16082 20.9045L20.2876 27.7238L37.7179 9.53765C38.0234 9.21875 38.5298 9.20787 38.849 9.51298C39.1682 9.81819 39.1793 10.3239 38.8738 10.6427L21.802 28.4549ZM16.0808 40.8999C15.7276 40.6347 15.2261 40.7057 14.9606 41.0584C13.7036 42.7279 11.6645 43.7638 9.7563 43.2957C14.2489 37.663 10.8885 33.8269 8.24391 33.8269C6.65012 33.8269 5.34232 35.0858 4.77373 36.4517C3.87013 38.6222 4.85723 41.9321 7.14821 43.7424C5.31622 45.3989 3.12854 46.2383 0.74455 46.4038C0.303752 46.4345 -0.0286457 46.8161 0.00195412 47.2563C0.0330539 47.7023 0.422152 48.0293 0.855549 47.9979C3.81473 47.7924 6.42902 46.6832 8.58401 44.5888C11.3344 45.7214 14.423 44.4312 16.2394 42.0186C16.5049 41.6661 16.4339 41.1651 16.0808 40.8999ZM6.25112 37.0652C5.62212 38.5764 6.42462 41.2279 8.26741 42.5863C9.8444 40.7285 10.827 38.4531 10.1556 36.934C9.832 36.2016 9.0523 35.4249 8.24371 35.4249C7.28561 35.4249 6.52722 36.402 6.25112 37.0652Z" fill="#243479"/>
</svg>
